<svg width="82" height="56" viewBox="0 0 82 56" fill="none" xmlns="http://www.w3.org/2000/svg">
<path d="M0.183289 1.98582C0.708892 0.671814 2.20019 0.0326856 3.5142 0.558289L12.5199 4.16059C14.3527 4.8937 16.3973 4.8937 18.2301 4.16059L23.4291 2.08099C26.4837 0.859135 29.8913 0.859134 32.946 2.08099L38.1449 4.16059C39.9777 4.8937 42.0223 4.8937 43.8551 4.16059L49.0541 2.08099C52.1087 0.859135 55.5163 0.859134 58.571 2.08099L63.7699 4.16059C65.6027 4.8937 67.6473 4.8937 69.4801 4.16059L78.4858 0.558289C79.7998 0.0326856 81.2911 0.671814 81.8167 1.98582C82.3423 3.29983 81.7032 4.79113 80.3892 5.31673L71.3835 8.91903C68.3288 10.1409 64.9212 10.1409 61.8666 8.91903L56.6676 6.83943C54.8348 6.10632 52.7902 6.10632 50.9574 6.83943L45.7585 8.91903C42.7038 10.1409 39.2962 10.1409 36.2416 8.91903L31.0426 6.83943C29.2098 6.10632 27.1652 6.10632 25.3324 6.83943L20.1335 8.91903C17.0788 10.1409 13.6712 10.1409 10.6166 8.91903L1.61082 5.31673C0.296814 4.79113 -0.342314 3.29983 0.183289 1.98582ZM0.183289 17.3608C0.708892 16.0468 2.20019 15.4077 3.5142 15.9333L12.5199 19.5356C14.3527 20.2687 16.3973 20.2687 18.2301 19.5356L23.4291 17.456C26.4837 16.2341 29.8913 16.2341 32.946 17.456L38.1449 19.5356C39.9777 20.2687 42.0223 20.2687 43.8551 19.5356L49.0541 17.456C52.1087 16.2341 55.5163 16.2341 58.571 17.456L63.7699 19.5356C65.6027 20.2687 67.6473 20.2687 69.4801 19.5356L78.4858 15.9333C79.7998 15.4077 81.2911 16.0468 81.8167 17.3608C82.3423 18.6748 81.7032 20.1661 80.3892 20.6917L71.3835 24.294C68.3288 25.5159 64.9212 25.5159 61.8666 24.294L56.6676 22.2144C54.8348 21.4813 52.7902 21.4813 50.9574 22.2144L45.7585 24.294C42.7038 25.5159 39.2962 25.5159 36.2416 24.294L31.0426 22.2144C29.2098 21.4813 27.1652 21.4813 25.3324 22.2144L20.1335 24.294C17.0788 25.5159 13.6712 25.5159 10.6166 24.294L1.61082 20.6917C0.296814 20.1661 -0.342314 18.6748 0.183289 17.3608ZM0.183289 32.7358C0.708892 31.4218 2.20019 30.7827 3.5142 31.3083L12.5199 34.9106C14.3527 35.6437 16.3973 35.6437 18.2301 34.9106L23.4291 32.831C26.4837 31.6091 29.8913 31.6091 32.946 32.831L38.1449 34.9106C39.9777 35.6437 42.0223 35.6437 43.8551 34.9106L49.0541 32.831C52.1087 31.6091 55.5163 31.6091 58.571 32.831L63.7699 34.9106C65.6027 35.6437 67.6473 35.6437 69.4801 34.9106L78.4858 31.3083C79.7998 30.7827 81.2911 31.4218 81.8167 32.7358C82.3423 34.0498 81.7032 35.5411 80.3892 36.0667L71.3835 39.669C68.3288 40.8909 64.9212 40.8909 61.8666 39.669L56.6676 37.5894C54.8348 36.8563 52.7902 36.8563 50.9574 37.5894L45.7585 39.669C42.7038 40.8909 39.2962 40.8909 36.2416 39.669L31.0426 37.5894C29.2098 36.8563 27.1652 36.8563 25.3324 37.5894L20.1335 39.669C17.0788 40.8909 13.6712 40.8909 10.6166 39.669L1.61082 36.0667C0.296814 35.5411 -0.342314 34.0498 0.183289 32.7358ZM0.183289 48.1108C0.708892 46.7968 2.20019 46.1577 3.5142 46.6833L12.5199 50.2856C14.3527 51.0187 16.3973 51.0187 18.2301 50.2856L23.4291 48.206C26.4837 46.9841 29.8913 46.9841 32.946 48.206L38.1449 50.2856C39.9777 51.0187 42.0223 51.0187 43.8551 50.2856L49.0541 48.206C52.1087 46.9841 55.5163 46.9841 58.571 48.206L63.7699 50.2856C65.6027 51.0187 67.6473 51.0187 69.4801 50.2856L78.4858 46.6833C79.7998 46.1577 81.2911 46.7968 81.8167 48.1108C82.3423 49.4248 81.7032 50.9161 80.3892 51.4417L71.3835 55.044C68.3288 56.2659 64.9212 56.2659 61.8666 55.044L56.6676 52.9644C54.8348 52.2313 52.7902 52.2313 50.9574 52.9644L45.7585 55.044C42.7038 56.2659 39.2962 56.2659 36.2416 55.044L31.0426 52.9644C29.2098 52.2313 27.1652 52.2313 25.3324 52.9644L20.1335 55.044C17.0788 56.2659 13.6712 56.2659 10.6166 55.044L1.61082 51.4417C0.296814 50.9161 -0.342314 49.4248 0.183289 48.1108Z" fill="#070707"/>
</svg>
