<svg width="48" height="33" viewBox="0 0 48 33" fill="none" xmlns="http://www.w3.org/2000/svg">
<path d="M0.605074 1.73576C0.906335 0.982613 1.7611 0.616284 2.51425 0.917544L7.67608 2.98228C8.72658 3.40247 9.89847 3.40248 10.949 2.98228L13.9289 1.79031C15.6797 1.08998 17.6328 1.08998 19.3837 1.79031L22.3636 2.98228C23.4141 3.40247 24.586 3.40248 25.6365 2.98228L28.6164 1.79031C30.3672 1.08998 32.3203 1.08998 34.0712 1.79031L37.0511 2.98228C38.1016 3.40247 39.2735 3.40248 40.324 2.98228L45.4858 0.917544C46.2389 0.616284 47.0937 0.982613 47.395 1.73576C47.6962 2.48891 47.3299 3.34368 46.5768 3.64494L41.4149 5.70968C39.6641 6.41001 37.711 6.41001 35.9601 5.70968L32.9802 4.51771C31.9297 4.09751 30.7578 4.09751 29.7073 4.51771L26.7274 5.70968C24.9766 6.41001 23.0235 6.41001 21.2726 5.70968L18.2927 4.51771C17.2422 4.09751 16.0703 4.09751 15.0198 4.51771L12.0399 5.70968C10.2891 6.41001 8.33595 6.41001 6.58512 5.70968L1.42329 3.64494C0.670144 3.34368 0.303814 2.48891 0.605074 1.73576ZM0.605074 10.5483C0.906335 9.79511 1.7611 9.42878 2.51425 9.73004L7.67608 11.7948C8.72658 12.215 9.89847 12.215 10.949 11.7948L13.9289 10.6028C15.6797 9.90248 17.6328 9.90248 19.3837 10.6028L22.3636 11.7948C23.4141 12.215 24.586 12.215 25.6365 11.7948L28.6164 10.6028C30.3672 9.90248 32.3203 9.90248 34.0712 10.6028L37.0511 11.7948C38.1016 12.215 39.2735 12.215 40.324 11.7948L45.4858 9.73004C46.2389 9.42878 47.0937 9.79511 47.395 10.5483C47.6962 11.3014 47.3299 12.1562 46.5768 12.4574L41.4149 14.5222C39.6641 15.2225 37.711 15.2225 35.9601 14.5222L32.9802 13.3302C31.9297 12.91 30.7578 12.91 29.7073 13.3302L26.7274 14.5222C24.9766 15.2225 23.0235 15.2225 21.2726 14.5222L18.2927 13.3302C17.2422 12.91 16.0703 12.91 15.0198 13.3302L12.0399 14.5222C10.2891 15.2225 8.33595 15.2225 6.58512 14.5222L1.42329 12.4574C0.670144 12.1562 0.303814 11.3014 0.605074 10.5483ZM0.605074 19.3608C0.906335 18.6076 1.7611 18.2413 2.51425 18.5425L7.67608 20.6073C8.72658 21.0275 9.89847 21.0275 10.949 20.6073L13.9289 19.4153C15.6797 18.715 17.6328 18.715 19.3837 19.4153L22.3636 20.6073C23.4141 21.0275 24.586 21.0275 25.6365 20.6073L28.6164 19.4153C30.3672 18.715 32.3203 18.715 34.0712 19.4153L37.0511 20.6073C38.1016 21.0275 39.2735 21.0275 40.324 20.6073L45.4858 18.5425C46.2389 18.2413 47.0937 18.6076 47.395 19.3608C47.6962 20.1139 47.3299 20.9687 46.5768 21.2699L41.4149 23.3347C39.6641 24.035 37.711 24.035 35.9601 23.3347L32.9802 22.1427C31.9297 21.7225 30.7578 21.7225 29.7073 22.1427L26.7274 23.3347C24.9766 24.035 23.0235 24.035 21.2726 23.3347L18.2927 22.1427C17.2422 21.7225 16.0703 21.7225 15.0198 22.1427L12.0399 23.3347C10.2891 24.035 8.33596 24.035 6.58512 23.3347L1.42329 21.2699C0.670144 20.9687 0.303814 20.1139 0.605074 19.3608ZM0.605074 28.1733C0.906335 27.4201 1.7611 27.0538 2.51425 27.355L7.67608 29.4198C8.72658 29.84 9.89847 29.84 10.949 29.4198L13.9289 28.2278C15.6797 27.5275 17.6328 27.5275 19.3837 28.2278L22.3636 29.4198C23.4141 29.84 24.586 29.84 25.6365 29.4198L28.6164 28.2278C30.3672 27.5275 32.3203 27.5275 34.0712 28.2278L37.0511 29.4198C38.1016 29.84 39.2735 29.84 40.324 29.4198L45.4858 27.355C46.2389 27.0538 47.0937 27.4201 47.395 28.1733C47.6962 28.9264 47.3299 29.7812 46.5768 30.0824L41.4149 32.1472C39.6641 32.8475 37.711 32.8475 35.9601 32.1472L32.9802 30.9552C31.9297 30.535 30.7578 30.535 29.7073 30.9552L26.7274 32.1472C24.9766 32.8475 23.0235 32.8475 21.2726 32.1472L18.2927 30.9552C17.2422 30.535 16.0703 30.535 15.0198 30.9552L12.0399 32.1472C10.2891 32.8475 8.33596 32.8475 6.58512 32.1472L1.42329 30.0824C0.670144 29.7812 0.303814 28.9264 0.605074 28.1733Z" fill="white"/>
</svg>
