<svg width="32" height="38" viewBox="0 0 32 38" fill="none" xmlns="http://www.w3.org/2000/svg">
<path fill-rule="evenodd" clip-rule="evenodd" d="M25.3333 19.3846C23.9512 20.1175 22.3747 20.5327 20.7013 20.5327C15.2333 20.5327 10.8006 16.1 10.8006 10.632C10.8006 8.95859 11.2158 7.38212 11.9488 6C6.31551 6.85994 2 11.7256 2 17.5992C2 24.0798 7.25356 29.3333 13.7341 29.3333C19.6077 29.3333 24.4734 25.0178 25.3333 19.3846Z" fill="url(#paint0_linear_103_616)"/>
<path fill-rule="evenodd" clip-rule="evenodd" d="M25.0921 19.7125C23.7646 20.3555 22.2748 20.7161 20.7013 20.7161C15.132 20.7161 10.6173 16.2013 10.6173 10.632C10.6173 9.05852 10.9778 7.56875 11.6209 6.24123C6.25079 7.23399 2.18335 11.9417 2.18335 17.5992C2.18335 23.9785 7.35482 29.15 13.7341 29.15C19.3916 29.15 24.0993 25.0825 25.0921 19.7125ZM25.1312 19.4888C23.7983 20.1568 22.2937 20.5327 20.7013 20.5327C15.2333 20.5327 10.8006 16.1 10.8006 10.632C10.8006 9.03964 11.1765 7.53505 11.8445 6.20217C11.8785 6.13433 11.9133 6.06694 11.9488 6C11.8732 6.01153 11.7979 6.02379 11.7228 6.03676C6.20052 6.99065 2 11.8044 2 17.5992C2 24.0798 7.25356 29.3333 13.7341 29.3333C19.529 29.3333 24.3427 25.1328 25.2966 19.6105C25.3095 19.5355 25.3218 19.4601 25.3333 19.3846C25.2664 19.4201 25.199 19.4548 25.1312 19.4888Z" fill="url(#paint1_radial_103_616)" fill-opacity="0.6"/>
<path fill-rule="evenodd" clip-rule="evenodd" d="M13.6667 21.1666C13.6667 24.1735 16.1042 26.6111 19.1111 26.6111H26.1111C28.2589 26.6111 30 24.87 30 22.7222C30 20.5744 28.2589 18.8333 26.1111 18.8333C25.43 18.8333 24.7897 19.0084 24.233 19.3161C23.4756 17.2202 21.4683 15.7222 19.1111 15.7222C16.1042 15.7222 13.6667 18.1598 13.6667 21.1666Z" fill="url(#paint2_linear_103_616)"/>
<path fill-rule="evenodd" clip-rule="evenodd" d="M24.1803 19.4563L24.1415 19.3491C23.3976 17.2905 21.426 15.8194 19.1111 15.8194C16.1579 15.8194 13.7639 18.2135 13.7639 21.1666C13.7639 24.1198 16.1579 26.5139 19.1111 26.5139H26.1111C28.2052 26.5139 29.9028 24.8163 29.9028 22.7222C29.9028 20.6281 28.2052 18.9305 26.1111 18.9305C25.4468 18.9305 24.8227 19.1013 24.28 19.4012L24.1803 19.4563ZM24.1987 19.224C23.4164 17.1764 21.4336 15.7222 19.1111 15.7222C16.1042 15.7222 13.6667 18.1598 13.6667 21.1666C13.6667 24.1735 16.1042 26.6111 19.1111 26.6111H26.1111C28.2589 26.6111 30 24.87 30 22.7222C30 20.5744 28.2589 18.8333 26.1111 18.8333C25.465 18.8333 24.8557 18.9909 24.3196 19.2697C24.2905 19.2848 24.2616 19.3003 24.233 19.3161C24.2218 19.2852 24.2104 19.2545 24.1987 19.224Z" fill="url(#paint3_radial_103_616)" fill-opacity="0.6"/>
<defs>
<linearGradient id="paint0_linear_103_616" x1="2" y1="6.23173" x2="25.1016" y2="29.3333" gradientUnits="userSpaceOnUse">
<stop stop-color="#8C8EFC"/>
<stop offset="1" stop-color="#6468E2"/>
</linearGradient>
<radialGradient id="paint1_radial_103_616" cx="0" cy="0" r="1" gradientUnits="userSpaceOnUse" gradientTransform="translate(9.33384 15.9491) rotate(72.0619) scale(14.0681)">
<stop stop-color="#A9ABFF"/>
<stop offset="1" stop-color="#6265C9"/>
</radialGradient>
<linearGradient id="paint2_linear_103_616" x1="13.6667" y1="15.9037" x2="29.83" y2="27.6479" gradientUnits="userSpaceOnUse">
<stop stop-color="#F8F8F8"/>
<stop offset="1" stop-color="#E5E5E5"/>
</linearGradient>
<radialGradient id="paint3_radial_103_616" cx="0" cy="0" r="1" gradientUnits="userSpaceOnUse" gradientTransform="translate(20.9583 23.2083) rotate(21.1048) scale(5.94011 9.3848)">
<stop stop-color="#AEAEAE"/>
<stop offset="1" stop-color="#E9E9E9"/>
</radialGradient>
</defs>
</svg>
