<svg width="32" height="38" viewBox="0 0 32 38" fill="none" xmlns="http://www.w3.org/2000/svg">
<path d="M28.8333 8C28.8333 11.866 25.6993 15 21.8333 15C17.9673 15 14.8333 11.866 14.8333 8C14.8333 4.13401 17.9673 1 21.8333 1C25.6993 1 28.8333 4.13401 28.8333 8Z" fill="url(#paint0_linear_1314_1581)"/>
<path fill-rule="evenodd" clip-rule="evenodd" d="M21.8333 14.8906C25.6389 14.8906 28.7239 11.8056 28.7239 8C28.7239 4.19441 25.6389 1.10938 21.8333 1.10938C18.0277 1.10938 14.9427 4.19441 14.9427 8C14.9427 11.8056 18.0277 14.8906 21.8333 14.8906ZM21.8333 15C25.6993 15 28.8333 11.866 28.8333 8C28.8333 4.13401 25.6993 1 21.8333 1C17.9673 1 14.8333 4.13401 14.8333 8C14.8333 11.866 17.9673 15 21.8333 15Z" fill="url(#paint1_radial_1314_1581)" fill-opacity="0.6"/>
<path fill-rule="evenodd" clip-rule="evenodd" d="M2 15C2 20.1546 6.17868 24.3333 11.3333 24.3333H23.3333C27.0152 24.3333 30 21.3486 30 17.6667C30 13.9848 27.0152 11 23.3333 11C22.1657 11 21.0681 11.3002 20.1137 11.8276C18.8153 8.2346 15.3742 5.66666 11.3333 5.66666C6.17868 5.66666 2 9.84533 2 15Z" fill="url(#paint2_linear_1314_1581)"/>
<path fill-rule="evenodd" clip-rule="evenodd" d="M20.0233 12.0679L19.9569 11.8842C18.6816 8.35516 15.3018 5.83332 11.3333 5.83332C6.27072 5.83332 2.16667 9.93738 2.16667 15C2.16667 20.0626 6.27072 24.1667 11.3333 24.1667H23.3333C26.9232 24.1667 29.8333 21.2565 29.8333 17.6667C29.8333 14.0768 26.9232 11.1667 23.3333 11.1667C22.1946 11.1667 21.1247 11.4593 20.1943 11.9735L20.0233 12.0679ZM20.055 11.6697C18.7139 8.15959 15.3147 5.66666 11.3333 5.66666C6.17868 5.66666 2 9.84533 2 15C2 20.1546 6.17868 24.3333 11.3333 24.3333H23.3333C27.0152 24.3333 30 21.3486 30 17.6667C30 13.9848 27.0152 11 23.3333 11C22.2257 11 21.1812 11.2701 20.2621 11.748C20.2123 11.7739 20.1628 11.8005 20.1137 11.8276C20.0946 11.7747 20.075 11.7221 20.055 11.6697Z" fill="url(#paint3_radial_1314_1581)" fill-opacity="0.6"/>
<path d="M18.3334 20.8333L18.319 25.5184C18.3159 26.5267 17.6725 27.4141 16.7217 27.7213C15.5017 28.1155 14.1864 27.4361 13.7839 26.2038C13.4703 25.2434 13.8002 24.1941 14.603 23.5989L18.3334 20.8333Z" fill="url(#paint4_linear_1314_1581)"/>
<path d="M8.33261 24.3106H5.5L8.94372 16.1667L9.05597 22.0227H11.8636L8.41991 30.1667L8.33261 24.3106Z" fill="url(#paint5_linear_1314_1581)"/>
<defs>
<linearGradient id="paint0_linear_1314_1581" x1="14.8333" y1="1" x2="28.8333" y2="15" gradientUnits="userSpaceOnUse">
<stop stop-color="#F8E352"/>
<stop offset="1" stop-color="#EFB61F"/>
</linearGradient>
<radialGradient id="paint1_radial_1314_1581" cx="0" cy="0" r="1" gradientUnits="userSpaceOnUse" gradientTransform="translate(20.4114 6.25) rotate(80.7701) scale(8.86478)">
<stop stop-color="#E26E03"/>
<stop offset="1" stop-color="#F6DC4A"/>
</radialGradient>
<linearGradient id="paint2_linear_1314_1581" x1="2" y1="5.97777" x2="29.7085" y2="26.1108" gradientUnits="userSpaceOnUse">
<stop stop-color="#F8F8F8"/>
<stop offset="1" stop-color="#E5E5E5"/>
</linearGradient>
<radialGradient id="paint3_radial_1314_1581" cx="0" cy="0" r="1" gradientUnits="userSpaceOnUse" gradientTransform="translate(14.5 18.5) rotate(21.1048) scale(10.183 16.0882)">
<stop stop-color="#AEAEAE"/>
<stop offset="1" stop-color="#E9E9E9"/>
</radialGradient>
<linearGradient id="paint4_linear_1314_1581" x1="16.4376" y1="19.8541" x2="17.4539" y2="28.7978" gradientUnits="userSpaceOnUse">
<stop stop-color="#41AEFF"/>
<stop offset="1" stop-color="#0996FF"/>
</linearGradient>
<linearGradient id="paint5_linear_1314_1581" x1="5.5" y1="16.1667" x2="12.6826" y2="29.7331" gradientUnits="userSpaceOnUse">
<stop stop-color="#FFCF3C"/>
<stop offset="1" stop-color="#FF7A00"/>
</linearGradient>
</defs>
</svg>
