<svg width="49" height="43" viewBox="0 0 49 43" fill="none" xmlns="http://www.w3.org/2000/svg">
<path d="M38 3.5C33.8579 3.5 30.5 6.85786 30.5 11C30.5 11.8284 29.8284 12.5 29 12.5C28.1716 12.5 27.5 11.8284 27.5 11C27.5 5.20101 32.201 0.5 38 0.5C43.799 0.5 48.5 5.20101 48.5 11C48.5 16.799 43.799 21.5 38 21.5H2C1.17157 21.5 0.5 20.8284 0.5 20C0.5 19.1716 1.17157 18.5 2 18.5H38C42.1421 18.5 45.5 15.1421 45.5 11C45.5 6.85786 42.1421 3.5 38 3.5ZM17 6.5C15.3431 6.5 14 7.84315 14 9.5C14 10.3284 13.3284 11 12.5 11C11.6716 11 11 10.3284 11 9.5C11 6.18629 13.6863 3.5 17 3.5C20.3137 3.5 23 6.18629 23 9.5C23 12.8137 20.3137 15.5 17 15.5H2C1.17157 15.5 0.5 14.8284 0.5 14C0.5 13.1716 1.17157 12.5 2 12.5H17C18.6569 12.5 20 11.1569 20 9.5C20 7.84315 18.6569 6.5 17 6.5ZM0.5 26C0.5 25.1716 1.17157 24.5 2 24.5H32.125C37.0956 24.5 41.125 28.5294 41.125 33.5C41.125 38.4706 37.0956 42.5 32.125 42.5C27.1544 42.5 23.125 38.4706 23.125 33.5C23.125 32.6716 23.7966 32 24.625 32C25.4534 32 26.125 32.6716 26.125 33.5C26.125 36.8137 28.8113 39.5 32.125 39.5C35.4387 39.5 38.125 36.8137 38.125 33.5C38.125 30.1863 35.4387 27.5 32.125 27.5H2C1.17157 27.5 0.5 26.8284 0.5 26Z" fill="white"/>
</svg>
