<svg width="16" height="16" viewBox="0 0 16 16" fill="none" xmlns="http://www.w3.org/2000/svg">
<path d="M0.799969 6.39997C0.587796 6.39997 0.384313 6.31568 0.234284 6.16565C0.0842549 6.01563 -3.05176e-05 5.81214 -3.05176e-05 5.59997C-3.05176e-05 5.3878 0.0842549 5.18431 0.234284 5.03428C0.384313 4.88425 0.587796 4.79997 0.799969 4.79997H7.19997C7.62432 4.79997 8.03128 4.6314 8.33134 4.33134C8.6314 4.03128 8.79997 3.62432 8.79997 3.19997C8.79997 2.77562 8.6314 2.36866 8.33134 2.0686C8.03128 1.76854 7.62432 1.59997 7.19997 1.59997C6.75997 1.59997 6.35997 1.77597 6.07197 2.07197C5.75997 2.39997 5.24797 2.39997 4.93597 2.07197C4.62397 1.75997 4.62397 1.24797 4.93597 0.935969C5.51997 0.359969 6.31997 -3.05176e-05 7.19997 -3.05176e-05C8.04866 -3.05176e-05 8.86259 0.337111 9.46271 0.937228C10.0628 1.53734 10.4 2.35128 10.4 3.19997C10.4 4.04866 10.0628 4.86259 9.46271 5.46271C8.86259 6.06283 8.04866 6.39997 7.19997 6.39997H0.799969ZM12.8 7.99997C13.0121 7.99997 13.2156 7.91568 13.3657 7.76565C13.5157 7.61563 13.6 7.41214 13.6 7.19997C13.6 6.9878 13.5157 6.78431 13.3657 6.63428C13.2156 6.48425 13.0121 6.39997 12.8 6.39997C12.576 6.39997 12.376 6.48797 12.232 6.63197C11.92 6.94397 11.416 6.94397 11.104 6.63197C10.8 6.31997 10.8 5.81597 11.104 5.50397C11.536 5.07197 12.136 4.79997 12.8 4.79997C13.4365 4.79997 14.0469 5.05283 14.497 5.50291C14.9471 5.953 15.2 6.56345 15.2 7.19997C15.2 7.83649 14.9471 8.44694 14.497 8.89703C14.0469 9.34711 13.4365 9.59997 12.8 9.59997H1.59997C1.3878 9.59997 1.18431 9.51568 1.03428 9.36565C0.884255 9.21562 0.799969 9.01214 0.799969 8.79997C0.799969 8.5878 0.884255 8.38431 1.03428 8.23428C1.18431 8.08425 1.3878 7.99997 1.59997 7.99997H12.8ZM12 12.8H0.799969C0.587796 12.8 0.384313 12.7157 0.234284 12.5657C0.0842549 12.4156 -3.05176e-05 12.2121 -3.05176e-05 12C-3.05176e-05 11.7878 0.0842549 11.5843 0.234284 11.4343C0.384313 11.2843 0.587796 11.2 0.799969 11.2H12C12.6365 11.2 13.2469 11.4528 13.697 11.9029C14.1471 12.353 14.4 12.9634 14.4 13.6C14.4 14.2365 14.1471 14.8469 13.697 15.297C13.2469 15.7471 12.6365 16 12 16C11.336 16 10.736 15.728 10.304 15.296C9.99997 14.984 9.99997 14.48 10.304 14.168C10.616 13.856 11.12 13.856 11.432 14.168C11.576 14.312 11.776 14.4 12 14.4C12.2121 14.4 12.4156 14.3157 12.5657 14.1657C12.7157 14.0156 12.8 13.8121 12.8 13.6C12.8 13.3878 12.7157 13.1843 12.5657 13.0343C12.4156 12.8843 12.2121 12.8 12 12.8Z" fill="#212121"/>
</svg>
